<svg width="92" height="17" viewBox="0 0 92 17" fill="none" xmlns="http://www.w3.org/2000/svg">
<path d="M9.19765 0H0V16.5246H9.19765C14.8257 16.5246 18.4609 13.2818 18.4609 8.26377C18.4609 3.2457 14.8257 0 9.19765 0ZM9.00392 13.25H4.25508V3.2765H9.00392C12.1383 3.2765 14.1621 5.23465 14.1621 8.26278C14.1621 11.2909 12.1383 13.2491 9.00392 13.2491V13.25Z" fill="#0F161A"></path>
<path d="M34.7318 11.1767C36.8152 10.1722 37.915 8.3959 37.915 6.03738C37.915 2.31382 35.1143 0 30.6069 0H21.0596V16.5246H25.113V11.9774H30.4172L33.5218 16.5246H37.9925L34.4229 11.3247L34.7299 11.1776L34.7318 11.1767ZM30.3128 8.82608H25.114V3.22782H30.3128C32.4399 3.22782 33.6142 4.22527 33.6142 6.03837C33.6142 7.85148 32.4111 8.82608 30.3128 8.82608Z" fill="#0F161A"></path>
<path d="M75.5037 0H56.3315L57.5545 3.25266H63.8025V16.5246H68.0566V3.25266H74.2798L75.5027 0H75.5037Z" fill="#0F161A"></path>
<path d="M46.5857 0L39.7009 16.5246H43.9898L44.8392 14.4045C47.6627 13.5968 50.6292 13.6306 53.5034 14.5148L54.3091 16.5246H58.6963L51.7836 0H46.5838H46.5857ZM45.9489 11.1916L48.9393 4.57994H49.3595L52.3767 11.2631C50.2845 10.7902 47.8952 10.7524 45.9489 11.1916Z" fill="#0F161A"></path>
<path d="M79.8895 0L73.0046 16.5246H77.2935L78.1429 14.4045C80.9664 13.5968 83.9329 13.6306 86.8071 14.5148L87.6128 16.5246H92L85.0873 0H79.8875H79.8895ZM79.2516 11.1916L82.242 4.57994H82.6623L85.6795 11.2631C83.5872 10.7902 81.1979 10.7524 79.2516 11.1916Z" fill="#0F161A"></path>
</svg>