<svg width="78" height="28" viewBox="0 0 78 28" fill="none" xmlns="http://www.w3.org/2000/svg">
<path d="M33.9036 8.9148C34.9115 8.9148 35.7755 9.12058 36.4954 9.53212C37.2154 9.94367 37.7673 10.5135 38.1513 11.2416C38.5513 11.9539 38.7513 12.777 38.7513 13.7109C38.7513 13.9167 38.7433 14.1145 38.7273 14.3045C38.7113 14.4786 38.6793 14.6448 38.6313 14.8031H31.4078C31.4238 16.4334 31.7277 17.6047 32.3197 18.317C32.9277 19.0293 33.8076 19.3855 34.9595 19.3855C35.7595 19.3855 36.4074 19.2588 36.9034 19.0056C37.3994 18.7365 37.8553 18.3645 38.2713 17.8897L38.6553 18.2458C38.1753 19.1164 37.5194 19.797 36.6874 20.2877C35.8715 20.7626 34.8955 21 33.7596 21C32.6237 21 31.6238 20.7626 30.7598 20.2877C29.8959 19.8128 29.2159 19.1322 28.72 18.2458C28.24 17.3436 28 16.2672 28 15.0168C28 13.7188 28.28 12.6187 28.8399 11.7165C29.4159 10.8142 30.1519 10.1257 31.0478 9.65084C31.9597 9.16015 32.9117 8.9148 33.9036 8.9148ZM33.7836 9.60335C33.3196 9.60335 32.9117 9.7379 32.5597 10.007C32.2237 10.2602 31.9517 10.7193 31.7437 11.3841C31.5518 12.0331 31.4398 12.9511 31.4078 14.1383H35.7035C35.8795 12.5396 35.8155 11.3841 35.5115 10.6718C35.2075 9.9595 34.6316 9.60335 33.7836 9.60335Z" fill="#232323"></path>
<path d="M45.8531 21C44.7652 21 43.7812 20.7705 42.9013 20.3115C42.0214 19.8366 41.3254 19.156 40.8134 18.2696C40.3175 17.3673 40.0695 16.2751 40.0695 14.993C40.0695 13.7109 40.3495 12.6187 40.9094 11.7165C41.4694 10.8142 42.2134 10.1257 43.1413 9.65084C44.0852 9.16015 45.1172 8.9148 46.2371 8.9148C47.149 8.9148 47.925 9.06518 48.5649 9.36592C49.2049 9.66667 49.6928 10.0545 50.0288 10.5293C50.3648 10.9884 50.5328 11.4791 50.5328 12.0014C50.5328 12.4446 50.3968 12.7849 50.1248 13.0223C49.8688 13.2598 49.5329 13.3785 49.1169 13.3785C48.6689 13.3785 48.3009 13.2202 48.013 12.9036C47.741 12.5871 47.581 12.1834 47.533 11.6927C47.517 11.3762 47.517 11.1071 47.533 10.8855C47.565 10.6639 47.565 10.4502 47.533 10.2444C47.469 9.97533 47.357 9.7933 47.197 9.69832C47.053 9.60335 46.845 9.55587 46.5731 9.55587C45.5651 9.55587 44.7892 9.9595 44.2452 10.7668C43.7173 11.5582 43.4533 12.8482 43.4533 14.6369C43.4533 16.1723 43.7492 17.3515 44.3412 18.1746C44.9332 18.9977 45.8531 19.4092 47.101 19.4092C47.837 19.4092 48.4449 19.2747 48.9249 19.0056C49.4049 18.7207 49.8448 18.317 50.2448 17.7947L50.6288 18.0796C50.2288 19.0293 49.6129 19.7574 48.7809 20.264C47.965 20.7547 46.989 21 45.8531 21Z" fill="#232323"></path>
<path d="M51.341 20.6676V20.1927L51.653 20.0978C52.229 19.9237 52.517 19.5279 52.517 18.9106V6.68296C52.517 6.35056 52.461 6.10521 52.349 5.94693C52.237 5.77281 52.021 5.64618 51.701 5.56704L51.341 5.47207V5.02095L55.3968 4L55.7807 4.21369L55.6848 7.56145V10.6006C56.2447 10.1415 56.8527 9.74581 57.5086 9.41341C58.1806 9.08101 58.9005 8.9148 59.6685 8.9148C60.7244 8.9148 61.5484 9.20763 62.1403 9.7933C62.7483 10.379 63.0523 11.2812 63.0523 12.5V18.9344C63.0523 19.2509 63.1163 19.5042 63.2442 19.6941C63.3722 19.8841 63.5962 20.0265 63.9162 20.1215L64.1322 20.1927V20.6676H58.6606V20.1927L58.9485 20.0978C59.5245 19.9395 59.8125 19.5438 59.8125 18.9106V12.0489C59.8125 11.3999 59.7005 10.9488 59.4765 10.6955C59.2525 10.4423 58.8605 10.3156 58.3006 10.3156C57.9166 10.3156 57.5086 10.3869 57.0767 10.5293C56.6607 10.6718 56.2207 10.9092 55.7567 11.2416V18.9581C55.7567 19.2747 55.8207 19.5279 55.9487 19.7179C56.0767 19.9078 56.2927 20.0424 56.5967 20.1215L56.8127 20.1927V20.6676H51.341Z" fill="#232323"></path>
<path d="M71.0964 21C69.9125 21 68.8726 20.7547 67.9766 20.264C67.0967 19.7733 66.4087 19.0768 65.9128 18.1746C65.4328 17.2723 65.1928 16.196 65.1928 14.9455C65.1928 13.6951 65.4488 12.6187 65.9607 11.7165C66.4887 10.8142 67.1927 10.1257 68.0726 9.65084C68.9685 9.16015 69.9765 8.9148 71.0964 8.9148C72.2163 8.9148 73.2163 9.16015 74.0962 9.65084C74.9921 10.1257 75.6961 10.8142 76.2081 11.7165C76.736 12.6029 77 13.6792 77 14.9455C77 16.196 76.752 17.2803 76.2561 18.1983C75.7761 19.1006 75.0961 19.797 74.2162 20.2877C73.3363 20.7626 72.2963 21 71.0964 21ZM71.0964 20.3352C71.6724 20.3352 72.1363 20.1848 72.4883 19.8841C72.8563 19.5675 73.1203 19.0214 73.2803 18.2458C73.4402 17.4702 73.5202 16.3859 73.5202 14.993C73.5202 13.5843 73.4402 12.4921 73.2803 11.7165C73.1203 10.925 72.8563 10.379 72.4883 10.0782C72.1363 9.76164 71.6724 9.60335 71.0964 9.60335C70.5204 9.60335 70.0565 9.76164 69.7045 10.0782C69.3525 10.379 69.0885 10.925 68.9125 11.7165C68.7526 12.4921 68.6726 13.5843 68.6726 14.993C68.6726 16.3859 68.7526 17.4702 68.9125 18.2458C69.0885 19.0214 69.3525 19.5675 69.7045 19.8841C70.0565 20.1848 70.5204 20.3352 71.0964 20.3352Z" fill="#232323"></path>
<path d="M8.81373 14.4353C8.81373 19.6248 11.4164 23.2595 12.6931 24.7227C13.1194 25.2112 13.0095 25.4427 12.3635 25.3878C6.55515 24.8935 2 20.1787 2 14.4353C2 8.58057 6.73345 3.79463 12.7026 3.45883C12.9338 3.44582 13.057 3.74 12.898 3.90833C11.7296 5.14546 8.81373 8.7976 8.81373 14.4353Z" fill="#232323"></path>
<path d="M17.833 14.44C17.833 18.306 16.5882 21.44 15.333 21.44C14.0778 21.44 12.833 18.306 12.833 14.44C12.833 10.574 14.0778 7.43999 15.333 7.43999C16.5882 7.43999 17.833 10.574 17.833 14.44Z" fill="#232323"></path>
</svg>